<svg width="50" height="50" viewBox="0 0 50 50" fill="none" xmlns="http://www.w3.org/2000/svg">
<g clip-path="url(#clip0_152_294)">
<g clip-path="url(#clip1_152_294)">
<path d="M5.97578 41.9261C6.05068 41.9799 6.13213 42.0268 6.22037 42.0653C16.7821 46.7046 29.3162 43.213 36.0227 33.763C36.4535 33.1558 36.3139 32.3117 35.7099 31.8779C35.1058 31.4441 34.2668 31.5854 33.836 32.1926C27.8628 40.6093 16.701 43.7198 7.29486 39.5883C6.61453 39.2898 5.82269 39.602 5.52639 40.2859C5.26754 40.882 5.47011 41.563 5.97578 41.9261Z" fill="#D28B53"/>
<path d="M35.2555 31.9902C35.2753 32.0247 35.3009 32.0559 35.3335 32.083C35.4768 32.2003 35.6884 32.1797 35.8059 32.0359C35.8126 32.0273 36.4968 31.1974 37.483 30.6251C37.6435 30.5319 37.6987 30.3252 37.6061 30.1636C37.5134 30.0021 37.3079 29.9466 37.1473 30.0398C36.0512 30.6759 35.317 31.57 35.2867 31.6078C35.1955 31.7192 35.1877 31.872 35.2555 31.9902Z" fill="#D28B53"/>
<path d="M35.1848 32.8332C35.2553 32.9562 35.3991 33.0256 35.5444 32.9951L37.1245 32.6633C37.3058 32.6251 37.4224 32.4459 37.3845 32.2635C37.3463 32.0806 37.1684 31.9638 36.9871 32.0019L35.408 32.334C35.2258 32.3719 35.1091 32.5511 35.147 32.7335C35.1546 32.7697 35.1674 32.8028 35.1848 32.8332Z" fill="#D28B53"/>
<path d="M35.3895 33.7536C35.4603 33.8771 35.604 33.9466 35.7502 33.9148L36.9338 33.6624C37.1154 33.6234 37.2315 33.4445 37.1926 33.2619C37.1542 33.0798 36.9763 32.963 36.7948 33.0021L35.6112 33.2544C35.4296 33.2935 35.3135 33.4724 35.3523 33.655C35.3596 33.6906 35.3724 33.7238 35.3895 33.7536Z" fill="#D28B53"/>
<path d="M34.2037 32.5532C34.2964 32.7148 34.5019 32.7702 34.6625 32.677C34.823 32.5839 34.8782 32.3771 34.7856 32.2156C34.7459 32.145 34.408 31.4963 34.9495 31.0221C35.0896 30.8987 35.1041 30.6859 34.9823 30.5452C34.8605 30.4045 34.6481 30.3897 34.5082 30.5122C33.7316 31.193 33.9695 32.1447 34.2037 32.5532Z" fill="#D28B53"/>
<path d="M-0.873871 30.608L-1.01838 48.945C2.1286 48.4474 7.51042 47.2412 9.38564 39.4515C10.3782 35.3274 8.24593 31.1064 4.19675 29.9172C3.9066 29.832 3.61725 29.7681 3.33058 29.7191C1.60415 29.4233 0.586592 29.8192 -0.873871 30.608Z" fill="#D28B53"/>
<path d="M7.19058 35.1364C8.07005 35.3947 9.73053 35.6888 11.2118 34.8596C12.5975 34.0847 13.4579 32.5523 13.7694 30.3048C13.8206 29.9355 13.5653 29.5951 13.1971 29.5426C12.8294 29.4909 12.49 29.7488 12.4393 30.1189C12.1897 31.9194 11.559 33.1159 10.5661 33.6753C9.06395 34.5209 7.12993 33.6889 7.11089 33.6798C6.77027 33.5298 6.37522 33.6855 6.22648 34.0269C6.07773 34.3682 6.22972 34.7655 6.56803 34.9162C6.59785 34.9292 6.82821 35.03 7.19058 35.1364Z" fill="#D28B53"/>
<path d="M11.4399 27.6255C11.8317 26.2757 13.2378 25.501 14.5796 25.895C15.9211 26.2892 16.6909 27.7026 16.2993 29.0522C15.9076 30.402 14.5024 31.1768 13.1606 30.7827C11.8189 30.3887 11.0484 28.9752 11.4399 27.6255ZM14.5454 26.9829C13.9251 26.8007 13.2724 27.1597 13.0913 27.7837C12.9102 28.4076 13.2681 29.0633 13.8882 29.2456C14.5084 29.4278 15.1612 29.0688 15.3423 28.4448C15.5234 27.8209 15.1656 27.1652 14.5454 26.9829Z" fill="#D28B53"/>
<path d="M1.92227 31.0805C1.94613 31.0875 1.97099 31.0934 1.99685 31.0984C2.12181 31.1211 3.25223 31.291 4.53524 30.3903C6.31851 29.1378 7.46039 26.5101 7.9301 22.5795C7.97201 22.2277 7.70822 21.9022 7.34166 21.8512C6.97428 21.8007 6.6433 22.0442 6.60075 22.3957C6.07612 26.7856 4.77526 28.5772 3.77618 29.3073C2.92543 29.9289 2.22309 29.8366 2.19347 29.8326C1.83131 29.7809 1.49474 30.0148 1.44488 30.3602C1.39857 30.6813 1.60375 30.9869 1.92227 31.0805Z" fill="#D28B53"/>
<path d="M5.60496 20.4441C5.9967 19.0943 7.40283 18.3196 8.74461 18.7136C10.0861 19.1079 10.856 20.5213 10.4643 21.8709C10.0726 23.2206 8.66745 23.9954 7.32567 23.6013C5.98397 23.2073 5.2134 21.7938 5.60496 20.4441ZM8.71141 19.8006C8.09064 19.6185 7.43934 19.9785 7.25828 20.6023C7.07719 21.2263 7.43488 21.8821 8.05516 22.0642C8.67528 22.2462 9.3271 21.8872 9.50828 21.2635C9.68937 20.6395 9.33168 19.9827 8.71141 19.8006Z" fill="#D28B53"/>
</g>
<path d="M33.5 3C28.2615 3 24 7.26147 24 12.5C24 17.7385 28.2615 22 33.5 22C38.7385 22 43 17.7385 43 12.5C43 7.26147 38.7385 3 33.5 3ZM34.1713 17.4463C33.994 17.6236 33.7502 17.7249 33.5 17.7249C33.4367 17.7249 33.3765 17.7186 33.3132 17.7059C33.253 17.6933 33.1928 17.6775 33.1358 17.6521C33.0788 17.6268 33.025 17.5983 32.9712 17.5635C32.9205 17.5318 32.873 17.4906 32.8287 17.4463C32.7843 17.402 32.7463 17.3545 32.7115 17.3038C32.6767 17.25 32.6482 17.1961 32.6228 17.1391C32.5975 17.0821 32.5817 17.022 32.569 16.9618C32.5563 16.8985 32.55 16.8351 32.55 16.775C32.55 16.7116 32.5563 16.6515 32.569 16.5881C32.5817 16.5279 32.5975 16.4678 32.6228 16.4108C32.6482 16.3538 32.6767 16.2999 32.7115 16.2461C32.7432 16.1955 32.7843 16.148 32.8287 16.1036C32.873 16.0593 32.9205 16.0213 32.9712 15.9865C33.025 15.9516 33.0788 15.9231 33.1358 15.8978C33.1928 15.8725 33.253 15.8566 33.3132 15.844C33.6267 15.7806 33.9528 15.882 34.1713 16.1036C34.2157 16.1479 34.2568 16.1954 34.2885 16.2461C34.3233 16.2999 34.3518 16.3538 34.3772 16.4108C34.4025 16.4678 34.4183 16.5279 34.431 16.5881C34.4437 16.6514 34.45 16.7116 34.45 16.7749C34.45 17.0251 34.3487 17.2689 34.1713 17.4463ZM35.0026 9.59761L34.4429 14.0437C34.3827 14.5187 33.979 14.875 33.5 14.875C33.0211 14.875 32.6173 14.5187 32.5572 14.0437L31.9975 9.60633C31.946 9.16934 32.0822 8.73867 32.3687 8.41566C32.6561 8.09346 33.0686 7.9082 33.5 7.9082C33.9315 7.9082 34.3439 8.09345 34.6305 8.41566C34.9179 8.73786 35.0533 9.16934 35.0026 9.59761Z" fill="#D28B53"/>
</g>
<defs>
<clipPath id="clip0_152_294">
<rect width="50" height="50" fill="white"/>
</clipPath>
<clipPath id="clip1_152_294">
<rect width="38" height="33" fill="white" transform="translate(0 18)"/>
</clipPath>
</defs>
</svg>
