<svg width="24" height="29" viewBox="0 0 24 29" fill="none" xmlns="http://www.w3.org/2000/svg">
<g clip-path="url(#clip0_165_413)">
<path d="M18.5998 26.7362C17.9158 28.3562 15.1078 29.1842 13.3438 29.0042C13.0198 28.9682 12.6958 28.8962 12.3718 28.7882C11.4358 28.4282 10.7158 27.4922 10.2478 26.5562C9.70778 25.5482 9.38378 24.3962 9.23978 23.2442C8.95178 21.0482 9.02378 18.8162 9.13178 16.5842C9.20378 15.5762 9.27578 14.5682 9.38378 13.5602C8.62778 13.5962 7.79978 13.5242 7.04378 13.2362C6.14378 12.9482 5.27978 12.0842 5.06378 11.1122C4.81178 9.96022 5.35178 8.73622 5.89178 7.65622C6.50378 6.43222 7.33178 5.35222 8.19578 4.27222C9.05978 3.15622 9.99578 2.07622 11.0398 1.10422C11.7238 0.49222 12.6598 0.13222 13.5958 0.0242194C13.8478 -0.0477797 15.1078 0.060219 15.3598 0.0962185C16.3318 0.240219 17.3038 0.45622 18.0958 0.96022C18.5998 1.28422 19.1038 1.75222 19.3198 2.29222C19.5358 2.79622 19.6438 3.37222 19.6438 3.91222C19.6438 5.42422 19.2118 6.90022 18.8518 8.37622C18.3118 10.3562 17.9158 12.4082 17.8438 14.4962C17.7358 16.4402 17.8078 18.4202 18.1678 20.3642C18.3478 21.3722 18.5638 22.3442 18.7078 23.3522C18.8158 24.0002 18.8158 24.6842 18.8518 25.3322C18.8518 25.8002 18.7798 26.2682 18.5998 26.7362Z" fill="#33291B"/>
</g>
<defs>
<clipPath id="clip0_165_413">
<rect width="24" height="29" fill="white"/>
</clipPath>
</defs>
</svg>
