<svg width="25" height="29" viewBox="0 0 25 29" fill="none" xmlns="http://www.w3.org/2000/svg">
<path d="M22.5156 27.4698C20.3058 29.8261 14.7433 28.7789 11.4668 28.7041C8.99031 28.6293 3.99929 28.0683 2.51341 26.1234C0.913239 24.0289 2.01812 20.7002 4.07549 18.9797C7.16154 16.399 12.4193 15.7258 14.0575 12.0604C14.9338 10.1903 14.0575 7.72185 11.9621 7.90885C9.8666 8.05846 9.3713 9.2179 9.94279 11.1628C11.3906 15.9876 3.3516 18.4935 1.56093 13.7809C-0.610736 8.09586 3.80879 1.7002 9.90469 0.428553C24.6111 -2.67577 29.2211 11.836 16.915 19.7651C18.3247 19.6529 19.7724 19.5781 21.2202 19.7651C24.4587 20.2139 24.8016 25.1135 22.5156 27.4698Z" fill="#33291B"/>
</svg>
