<svg width="25" height="29" viewBox="0 0 25 29" fill="none" xmlns="http://www.w3.org/2000/svg">
<path d="M20.7077 25.4926C16.6687 28.8549 8.03483 30.3168 3.55114 27.5392C-0.0802782 25.2734 0.142054 19.0605 4.36635 18.3296C6.25617 18.0372 12.2591 19.828 13.6302 18.5123C15.7423 16.5388 13.1485 15.4059 10.4434 16.3561C8.47949 17.0139 6.18206 16.8312 5.47801 14.8942C5.03335 13.6882 5.10746 11.605 6.21912 10.8741C7.70133 9.85082 9.92464 10.6183 11.5921 9.92392C12.7779 9.44881 13.0373 7.80423 11.7774 7.51186C9.36882 7.00021 7.07139 9.19299 4.58869 9.48536C2.21715 9.77773 0.290275 5.35562 1.99482 3.6014C6.18206 -0.747611 16.2981 -1.44199 20.3001 3.08975C22.7458 5.86727 22.1529 9.85082 19.2626 12.1898C25.1544 14.1633 25.4508 21.5091 20.7077 25.4926Z" fill="#33291B"/>
</svg>
