<svg width="25" height="29" viewBox="0 0 25 29" fill="none" xmlns="http://www.w3.org/2000/svg">
<path d="M22.829 25.6809C22.8664 28.9318 18.4487 30.0401 15.9778 27.8974C14.1807 26.3458 13.9936 23.5382 13.8064 21.1739C12.2714 21.8758 7.03007 21.9127 5.42023 21.6172C-1.65557 20.2873 0.890218 10.6453 5.23304 5.03005C7.03007 2.66574 9.80049 -0.548254 12.7207 0.079768C15.6783 0.70779 17.7374 3.18293 16.3896 5.80584C15.828 6.91411 10.5118 11.7166 9.9128 12.788C8.8271 14.5981 12.2714 13.7854 14.3679 13.7485C12.496 7.76379 19.6842 2.3702 24.2142 6.76634C26.3856 8.87206 23.428 15.0045 22.8664 17.9599C22.3797 20.472 22.7915 23.0949 22.829 25.6809Z" fill="#33291B"/>
</svg>
