<svg width="25" height="29" viewBox="0 0 25 29" fill="none" xmlns="http://www.w3.org/2000/svg">
<path d="M14.9964 27.317C9.37521 29.8558 1.07549 30.0832 1.00004 24.0203C1.00004 22.5425 0.962312 20.0795 3.2636 19.1322C4.92354 18.4501 6.84757 18.7532 8.62069 18.7532C11.9783 18.7532 11.2238 17.768 10.2806 17.1617C9.29975 16.4797 3.52768 17.5407 2.43363 17.0859C0.88686 16.4797 1.00004 13.8272 1.26412 12.2357C1.79228 8.63583 3.03724 5.03601 5.03672 2.00457C6.80984 -0.685821 14.1664 0.109931 17.4486 0.109931C19.1085 0.109931 21.0703 0.37518 22.202 1.58775C23.5224 3.06557 22.9943 6.58961 22.1266 8.33269C20.3912 11.9704 15.4868 10.6063 11.7897 8.90108C10.5824 8.37058 9.26203 11.0989 10.2429 11.6294C12.5819 12.8798 15.7509 11.5915 18.1276 12.7283C24.956 16.0249 22.5793 23.8688 14.9964 27.317Z" fill="#33291B"/>
</svg>
