<svg width="25" height="29" viewBox="0 0 25 29" fill="none" xmlns="http://www.w3.org/2000/svg">
<path d="M12.2612 28.6067C4.55718 29.6147 2.07318 23.0987 2.00118 18.2027C1.92918 13.9907 5.16918 4.16269 8.30118 1.31869C10.7852 -0.949304 15.0332 -0.0493052 17.5892 2.18269C18.5612 3.0467 19.3172 4.7747 18.7052 5.9267C18.3452 6.64669 15.8972 8.08669 15.2492 8.5187C13.7732 9.49069 12.4772 10.9667 11.9012 12.6227C15.7892 9.8147 21.4772 9.8507 23.0612 14.3867C25.4372 21.2267 19.4612 27.6347 12.2612 28.6067ZM11.5772 22.3427C14.8172 22.8827 17.7332 18.5267 15.6092 16.9067C12.6572 14.6387 8.30118 21.8387 11.5772 22.3427Z" fill="#33291B"/>
</svg>
