<svg width="25" height="29" viewBox="0 0 25 29" fill="none" xmlns="http://www.w3.org/2000/svg">
<path d="M13.0267 28.9704C11.3087 29.1198 9.40403 28.7088 8.02219 27.6252C7.12587 26.9525 6.41627 25.6821 6.49097 24.5237C6.52832 23.8511 6.64036 23.1411 6.82709 22.4685C7.20056 21.0486 7.68607 19.6286 8.20893 18.246C7.61138 18.3581 7.05117 18.4329 6.82709 18.4702C6.30423 18.545 5.78138 18.5823 5.29587 18.545C4.88505 18.4702 4.51158 18.2834 4.25015 17.9845C3.68995 17.2745 3.57791 15.5182 3.91403 14.6588C4.25015 13.8741 4.8477 13.351 5.66934 13.0894C6.37893 12.8652 7.12587 12.8278 7.8728 12.8278C8.76913 12.8278 9.66546 12.8652 10.5244 12.9773C11.122 11.7442 11.7942 10.5484 12.5412 9.39005C11.1593 9.57688 9.7775 9.87582 8.35831 10.0253C7.68607 10.1 6.97648 10.1748 6.26689 10.1C5.33321 10.0253 4.36219 9.95055 3.61526 9.39005C2.79362 8.75481 2.34546 7.67117 2.12138 6.66226C1.85995 5.27968 2.00934 3.67289 2.68158 2.40241C3.01771 1.72981 3.6526 1.1693 4.32485 0.758267C5.4826 0.0856599 6.93913 -0.101175 8.32097 0.0482933C9.51607 0.160393 10.7112 0.384597 11.9063 0.496696C14.1471 0.7209 16.3879 0.870366 18.6287 1.24404C19.4503 1.3935 20.272 1.50561 21.0936 1.72981C21.5791 1.87928 22.0646 2.10348 22.4008 2.47715C22.961 3.03765 23.073 3.97183 22.961 4.71917C22.6248 6.40069 21.7659 7.89537 20.9816 9.39005C20.3093 10.6605 19.5997 11.931 19.0395 13.2389C19.0395 13.2762 19.0395 13.3136 19.0395 13.3136C19.1889 13.3136 19.3757 13.3136 19.5624 13.3136C20.1226 13.3136 20.6828 13.351 21.2057 13.5752C21.6912 13.8367 22.0273 14.4346 22.102 14.9951C22.214 15.7798 21.9899 16.6766 21.5418 17.3119C21.1683 17.7976 20.5334 18.0218 19.9359 18.0592C19.1142 18.0592 18.2552 17.9845 17.3963 17.9471C17.2095 18.6571 17.0228 19.4044 16.8734 20.1144C16.4999 21.9454 16.4999 23.8137 16.2759 25.6447C16.2012 26.4294 16.0144 27.2515 15.4916 27.812C14.894 28.4846 13.923 28.8956 13.0267 28.9704Z" fill="#33291B"/>
</svg>
