<svg width="25" height="29" viewBox="0 0 25 29" fill="none" xmlns="http://www.w3.org/2000/svg">
<g clip-path="url(#clip0_165_448)">
<path d="M22.9113 24.3171C18.2533 29.2343 8.90022 30.6287 3.28101 26.8124C-1.11824 23.8401 -1.08127 16.1708 3.31798 13.3085C2.24589 12.648 1.6544 11.2903 1.28471 10.0793C-0.230995 4.97867 4.68581 1.60269 9.89837 0.42844C19.6581 -1.77328 27.1996 4.86858 21.3216 12.171C25.3512 15.1433 26.3493 20.6843 22.9113 24.3171ZM9.159 9.82246C10.0832 11.2903 13.7431 11.0334 14.3346 9.45551C15.7764 5.63919 6.94089 6.3364 9.159 9.82246ZM9.26991 16.9781C7.45845 21.8585 17.4399 21.4182 16.2939 16.7946C15.5915 13.859 10.1941 14.4828 9.26991 16.9781Z" fill="#33291B"/>
</g>
<defs>
<clipPath id="clip0_165_448">
<rect width="25" height="29" fill="white"/>
</clipPath>
</defs>
</svg>
