<svg width="25" height="29" viewBox="0 0 25 29" fill="none" xmlns="http://www.w3.org/2000/svg">
<path d="M17.3037 27.3917C14.7837 29.6597 10.5357 28.7597 8.01572 26.5277C7.04372 25.6637 6.28772 23.9357 6.89972 22.7837C7.25972 22.0997 9.70772 20.6597 10.3557 20.1917C11.7957 19.2197 13.0917 17.7437 13.6677 16.0877C9.77972 18.8957 4.12772 18.8597 2.54372 14.3597C0.131719 7.48372 6.10772 1.07572 13.3077 0.103724C21.0477 -0.904276 23.4957 5.64772 23.6037 10.5077C23.6757 14.7197 20.3997 24.5477 17.3037 27.3917ZM9.95972 11.8037C12.9117 14.0717 17.3037 6.87172 14.0277 6.36772C10.7877 5.82772 7.87172 10.1837 9.95972 11.8037Z" fill="#33291B"/>
</svg>
