<svg width="281" height="212" viewBox="0 0 281 212" fill="none" xmlns="http://www.w3.org/2000/svg">
<g opacity="0.65" clip-path="url(#clip0_152_46)">
<path d="M28.3066 157.381C28.6613 157.633 29.0472 157.853 29.4652 158.034C79.4946 179.825 138.867 163.425 170.634 119.038C172.675 116.187 172.014 112.222 169.152 110.184C166.291 108.147 162.317 108.811 160.276 111.662C131.982 151.195 79.11 165.805 34.5548 146.4C31.3322 144.998 27.5814 146.464 26.1779 149.676C24.9517 152.476 25.9113 155.675 28.3066 157.381Z" fill="#DFB28F"/>
<path d="M167 110.712C167.094 110.874 167.215 111.02 167.37 111.148C168.048 111.699 169.05 111.602 169.607 110.926C169.639 110.886 172.879 106.988 177.551 104.3C178.312 103.862 178.573 102.891 178.134 102.132C177.695 101.374 176.722 101.113 175.961 101.551C170.769 104.539 167.291 108.738 167.148 108.916C166.716 109.439 166.679 110.156 167 110.712Z" fill="#DFB28F"/>
<path d="M166.665 114.672C166.999 115.249 167.68 115.575 168.368 115.432L175.853 113.873C176.712 113.694 177.264 112.852 177.085 111.996C176.904 111.136 176.061 110.588 175.202 110.767L167.722 112.327C166.859 112.504 166.307 113.346 166.486 114.203C166.522 114.373 166.583 114.529 166.665 114.672Z" fill="#DFB28F"/>
<path d="M167.635 118.994C167.97 119.575 168.651 119.901 169.343 119.752L174.95 118.566C175.81 118.383 176.36 117.543 176.176 116.685C175.994 115.83 175.151 115.281 174.291 115.465L168.685 116.65C167.825 116.833 167.275 117.674 167.459 118.531C167.493 118.699 167.553 118.854 167.635 118.994Z" fill="#DFB28F"/>
<path d="M162.018 113.356C162.457 114.115 163.43 114.375 164.191 113.938C164.951 113.5 165.213 112.529 164.774 111.77C164.586 111.439 162.985 108.392 165.55 106.165C166.214 105.585 166.283 104.585 165.706 103.924C165.129 103.263 164.123 103.194 163.46 103.769C159.781 106.967 160.908 111.437 162.018 113.356Z" fill="#DFB28F"/>
<path d="M-4.13937 104.22L-4.8239 190.348C10.0828 188.011 35.5757 182.345 44.4583 145.757C49.1599 126.387 39.0597 106.561 19.8793 100.975C18.505 100.575 17.1344 100.275 15.7765 100.045C7.5986 98.6549 2.77861 100.514 -4.13937 104.22Z" fill="#DFB28F"/>
<path d="M23.5939 146.803C30.6369 148.854 36.7858 147.471 37.1709 147.378C38.0252 147.177 38.5528 146.326 38.3524 145.47C38.151 144.618 37.2953 144.088 36.441 144.289C36.3163 144.319 23.7622 147.1 14.9303 138.025C14.3185 137.397 13.3091 137.381 12.6797 137.991C12.0503 138.601 12.0349 139.605 12.6458 140.236C16.0889 143.771 19.9625 145.745 23.5939 146.803Z" fill="#C9702A" fill-opacity="0.8"/>
<path d="M34.7594 120.492C38.9254 121.705 46.7908 123.086 53.8073 119.192C60.3714 115.552 64.4468 108.354 65.9225 97.7977C66.165 96.0631 64.9557 94.4645 63.2116 94.2178C61.4696 93.975 59.8622 95.1864 59.6218 96.9249C58.4393 105.382 55.452 111.002 50.7486 113.629C43.6333 117.601 34.4722 113.693 34.382 113.65C32.7685 112.946 30.8972 113.677 30.1927 115.28C29.4881 116.884 30.208 118.75 31.8105 119.458C31.9518 119.519 33.043 119.992 34.7594 120.492Z" fill="#DFB28F"/>
<path d="M62.34 105.041C55.9842 103.19 52.336 96.5502 54.1916 90.2103C56.0472 83.8705 62.7039 80.2315 69.0597 82.0825C75.4155 83.9334 79.0636 90.5733 77.208 96.9131C75.3525 103.253 68.6958 106.892 62.34 105.041Z" fill="#DFB28F"/>
<path d="M63.1364 102.323C58.2852 100.911 55.5007 95.8427 56.917 91.0037C58.3333 86.1647 63.4141 83.3872 68.2653 84.7999C73.1165 86.2127 75.901 91.2807 74.4847 96.1197C73.0684 100.959 67.9876 103.736 63.1364 102.323Z" fill="white"/>
<path d="M68.8992 87.1904C71.8373 88.046 73.5306 91.1279 72.6728 94.0586C71.815 96.9894 68.7254 98.6784 65.7872 97.8227C62.8491 96.9671 61.1559 93.8852 62.0136 90.9545C62.8714 88.0237 65.961 86.3347 68.8992 87.1904Z" fill="#C9702A" fill-opacity="0.8"/>
<path d="M34.7008 71.3099C28.345 69.459 24.6969 62.8191 26.5525 56.4793C28.408 50.1394 35.0647 46.5005 41.4205 48.3514C47.7763 50.2023 51.4245 56.8422 49.5689 63.182C47.7133 69.5219 41.0567 73.1608 34.7008 71.3099Z" fill="#DFB28F"/>
<path d="M9.10563 106.439C9.21863 106.472 9.33648 106.499 9.45916 106.522C10.0521 106.625 15.4181 107.385 21.5857 102.846C30.1581 96.5347 35.7761 83.478 38.2881 64.0352C38.5123 62.2953 37.2802 60.7066 35.5399 60.4808C33.7956 60.2572 32.2038 61.4831 31.9766 63.2221C29.1709 84.9367 22.8555 93.8758 18.0508 97.5515C13.9595 100.681 10.6245 100.275 10.4839 100.258C8.76459 100.028 7.14682 101.207 6.88522 102.916C6.64223 104.505 7.59686 105.999 9.10563 106.439Z" fill="#DFB28F"/>
<path d="M35.4966 68.5924C30.6455 67.1796 27.8609 62.1116 29.2772 57.2726C30.6936 52.4336 35.7744 49.6561 40.6256 51.0688C45.4768 52.4816 48.2613 57.5496 46.845 62.3886C45.4287 67.2276 40.3478 70.0051 35.4966 68.5924Z" fill="white"/>
<path d="M41.2667 53.4593C44.2049 54.3149 45.8981 57.3968 45.0403 60.3275C44.1826 63.2583 41.0929 64.9473 38.1548 64.0916C35.2167 63.236 33.5234 60.1542 34.3812 57.2234C35.239 54.2927 38.3256 52.6028 41.2667 53.4593Z" fill="#C9702A" fill-opacity="0.8"/>
</g>
<path d="M133.754 40.4512C132.472 40.7603 129.923 41.0857 129.073 40.1095C127.44 38.2222 126.724 32.6092 127.307 30.2175C127.907 27.8096 130.989 27.0612 133.488 27.5168C140.685 28.8671 140.869 38.7266 133.754 40.4512ZM131.988 31.2913C129.923 31.2913 131.089 37.181 132.605 36.4651C135.071 35.2937 134.637 31.2751 131.988 31.2913Z" fill="#D28B53"/>
<path d="M150.716 32.9508C150.766 37.9131 146.284 42.0456 141.636 39.3774C136.121 36.2048 141.719 27.0287 147.367 28.7858C149.533 29.4529 150.699 30.9009 150.716 32.9508ZM144.901 32.479C143.468 33.504 143.318 35.7004 145.068 35.4238C147.767 35.0008 147.1 30.9009 144.901 32.479Z" fill="#D28B53"/>
<path d="M156.649 37.8155C156.516 41.1508 151.967 40.9393 151.451 37.6365C151.084 35.3588 151.218 33.0322 151.817 30.8358C152.55 28.2001 155.733 28.1676 156.366 30.8358C158.748 28.5255 163.53 28.1513 163.929 31.8608C164.079 33.1298 163.663 34.6754 164.529 35.6191C167.728 39.1333 161.197 42.0782 159.681 38.3198C159.315 37.425 159.298 33.6342 158.581 32.9671C157.715 32.1374 156.499 32.8858 156.499 34.6592C156.499 35.7004 156.682 36.758 156.649 37.8155Z" fill="#D28B53"/>
<path d="M169.126 33.325C168.676 33.6667 167.943 33.5528 167.86 32.9997C167.826 32.7068 167.91 32.4139 167.976 32.1211C167.76 32.1211 167.527 32.1048 167.293 32.056C165.677 31.6493 165.427 29.5993 166.627 28.4767C167.593 27.5656 169.759 27.7283 170.176 28.9322C170.642 30.2175 170.242 31.9747 169.409 33.0322C169.326 33.1298 169.243 33.2437 169.126 33.325Z" fill="#D28B53"/>
<path d="M178.565 39.1496C178.448 41.3623 175.533 42.127 173.967 40.5325C172.85 39.3774 172.484 36.156 172.451 33.7481C172.167 33.8619 171.734 33.9108 171.534 33.8782C171.434 33.8457 171.351 33.7969 171.268 33.7318C170.951 33.504 170.785 33.0485 170.751 32.658C170.735 32.3326 170.801 31.9747 171.034 31.7469C171.301 31.454 171.751 31.3727 172.151 31.3727C172.301 31.3727 172.434 31.4052 172.567 31.4378C172.817 29.5505 173.667 27.5818 175.549 27.9072C176.866 28.1187 177.449 28.7858 177.515 30.1362C177.532 30.4453 177.515 30.7544 177.499 31.0636C177.799 31.0473 178.098 31.0636 178.382 31.1449C178.598 31.21 178.748 31.3401 178.848 31.5354C179.065 31.9747 178.998 32.7881 178.648 33.1298C178.482 33.2762 178.248 33.3576 178.032 33.3739C177.782 33.4064 177.499 33.3901 177.232 33.325C177.099 34.5615 177.032 35.798 177.532 36.9044C177.865 37.6528 178.598 38.3361 178.565 39.1496Z" fill="#D28B53"/>
<path d="M194.249 39.1496C194.133 41.3623 191.217 42.127 189.651 40.5325C188.535 39.3774 188.168 36.156 188.135 33.7481C187.852 33.8619 187.418 33.9108 187.219 33.8782C187.119 33.8457 187.035 33.7969 186.952 33.7318C186.635 33.504 186.469 33.0485 186.435 32.658C186.419 32.3326 186.485 31.9747 186.719 31.7469C186.985 31.454 187.435 31.3727 187.835 31.3727C187.985 31.3727 188.118 31.4052 188.251 31.4378C188.501 29.5505 189.351 27.5818 191.234 27.9072C192.55 28.1187 193.133 28.7858 193.2 30.1362C193.216 30.4453 193.2 30.7544 193.183 31.0636C193.483 31.0473 193.783 31.0636 194.066 31.1449C194.283 31.21 194.433 31.3401 194.532 31.5354C194.749 31.9747 194.682 32.7881 194.333 33.1298C194.166 33.2762 193.933 33.3576 193.716 33.3739C193.466 33.4064 193.183 33.3901 192.916 33.325C192.783 34.5615 192.716 35.798 193.216 36.9044C193.549 37.6528 194.283 38.3361 194.249 39.1496Z" fill="#D28B53"/>
<path d="M206.278 32.9508C206.328 37.9131 201.846 42.0456 197.198 39.3774C191.683 36.2048 197.281 27.0287 202.929 28.7858C205.095 29.4529 206.261 30.9009 206.278 32.9508ZM200.463 32.479C199.03 33.504 198.88 35.7004 200.63 35.4238C203.329 35.0008 202.662 30.9009 200.463 32.479Z" fill="#D28B53"/>
<path d="M218.192 37.181C217.859 39.9794 214.843 40.9718 213.56 38.4337C211.911 39.898 209.279 40.0444 207.779 38.4337C205.93 36.4814 206.646 32.8207 208.212 30.6568C209.412 28.0049 213.894 28.7533 212.594 31.9096C212.244 32.7393 211.245 34.0409 211.778 34.7568C212.478 35.7004 213.944 34.7893 214.077 33.6179C214.227 32.3977 213.71 31.0148 214.31 29.9247C215.06 28.558 217.326 28.737 217.875 30.2175C218.325 31.389 218.342 35.9282 218.192 37.181Z" fill="#D28B53"/>
<path d="M229.078 38.7429C227.945 40.4349 224.997 40.6627 222.614 39.9306C219.349 38.9218 217.982 35.31 219.449 32.2838C221.331 28.4441 227.979 26.3291 229.845 30.4128C230.528 31.9096 229.412 33.0485 227.496 33.0485C226.313 33.0485 226.396 31.877 225.346 31.877C223.93 31.877 222.931 33.6016 223.447 34.529C223.88 35.2937 225.28 34.1385 226.113 33.8782C228.795 33.0485 231.128 35.6516 229.078 38.7429Z" fill="#D28B53"/>
<path d="M242.894 39.4587C241.645 41.0532 238.213 40.3698 238.663 38.027C239.262 34.8381 238.163 34.1873 237.213 35.4238C236.114 36.8718 236.697 39.9143 233.981 39.9143C231.932 39.9143 231.165 37.3437 230.915 35.6353C230.566 33.3088 230.432 30.7707 231.315 28.558C232.065 26.687 235.597 26.4267 236.33 28.1838C236.647 28.9485 236.313 30.9659 235.447 32.9508C235.43 32.9671 237.496 31.6005 238.096 31.389C241.478 30.1687 243.144 33.3088 243.427 36.823C243.494 37.7179 243.461 38.7429 242.894 39.4587Z" fill="#D28B53"/>
<path d="M118.694 88.8128C120.254 96.381 109.97 100.483 104.251 95.2255C101.882 93.0302 100.207 83.4977 99.7447 80.2624C98.647 72.3476 98.1848 63.1039 102.576 56.4023C109.162 46.5232 127.649 46.2344 134.813 55.8246C144.576 68.8234 131.866 87.1951 116.21 83.0355C117.25 84.8264 118.232 86.7907 118.694 88.8128ZM113.552 66.2237C112.801 71.6543 118.405 72.2898 121.698 67.9568C124.125 64.7216 121.178 60.042 117.365 61.4863C115.343 62.2374 113.899 64.0861 113.552 66.2237Z" fill="#D28B53"/>
<path d="M162.024 83.9983C163.583 91.5665 153.3 95.6684 147.58 90.4111C145.212 88.2157 143.536 78.6832 143.074 75.448C141.976 67.5331 141.514 58.2895 145.905 51.5879C152.491 41.7088 170.978 41.4199 178.142 51.0102C184.497 59.4449 181.32 70.1907 174.04 75.5057C174.618 75.7946 175.253 76.0835 175.889 76.4301C176.929 77.0078 177.969 77.6433 178.835 78.4521C179.471 79.0299 179.875 79.7809 180.049 80.5897C180.337 81.8029 180.28 83.1317 179.875 84.2872C179.066 86.9447 175.542 89.66 172.827 89.66C170.516 89.66 168.321 88.0424 166.761 86.367C164.797 84.2872 162.832 82.2074 160.695 80.3586C161.272 81.5141 161.735 82.7273 162.024 83.9983ZM156.882 61.4092C156.131 66.8398 161.735 67.4753 165.028 63.1424C167.454 59.9071 164.508 55.2275 160.695 56.6719C158.673 57.4229 157.228 59.2716 156.882 61.4092Z" fill="#D28B53"/>
<path d="M220.778 89.7953C213.325 97.5946 199.113 97.8834 191.083 89.7953C182.59 81.2449 184.324 67.3217 189.754 59.0603C197.091 47.9679 214.134 45.5415 223.147 54.3229C232.91 63.8554 230.253 79.9162 220.778 89.7953ZM204.024 79.5695C210.552 80.7828 213.903 73.9656 212.748 67.3795C211.881 62.6422 206.393 62.0067 203.331 65.7041C199.576 70.1526 198.305 78.4719 204.024 79.5695Z" fill="#D28B53"/>
<path d="M256.848 90.9893C252.399 92.087 243.56 93.2424 240.614 89.7761C234.952 83.0745 232.468 63.1429 234.49 54.6504C236.569 46.1 247.257 43.4425 255.923 45.0601C280.881 49.8552 281.517 84.8654 256.848 90.9893ZM250.724 58.4633C243.56 58.4633 247.604 79.377 252.861 76.835C261.412 72.6754 259.91 58.4056 250.724 58.4633Z" fill="#D28B53"/>
<defs>
<clipPath id="clip0_152_46">
<rect width="180" height="155" fill="white" transform="translate(0 45)"/>
</clipPath>
</defs>
</svg>
