<svg width="32" height="32" viewBox="0 0 32 32" fill="none" xmlns="http://www.w3.org/2000/svg">
<path d="M16.4527 8.00061C18.642 7.97248 20.7333 8.91365 22.1705 10.5729C23.6077 12.233 24.2452 14.4443 23.9137 16.6188C23.5829 18.7933 22.3162 20.7114 20.4508 21.8639C18.5853 23.0157 16.3098 23.2856 14.2291 22.6012L11.1275 23.6774C10.9909 23.7259 10.8465 23.7506 10.7008 23.7506C10.4064 23.7437 10.1231 23.6383 9.89512 23.4518C9.53273 23.1506 9.35267 22.6808 9.42051 22.2135L9.86387 18.9752C8.64278 16.6557 8.72046 13.8633 10.0699 11.6168C11.4188 9.37029 13.8412 7.9969 16.4527 8.00061ZM17.2271 15.0455C17.2637 14.2899 16.2994 13.9611 15.5543 14.2291C14.7481 14.5217 14.369 15.4724 13.9781 16.2282C13.5995 16.923 13.2699 18.508 13.7096 19.1783C14.5282 20.4092 17.0076 20.214 17.484 18.8854C17.7282 18.2029 17.1912 17.4472 17.0934 16.7282C17.0323 16.1674 17.2149 15.6063 17.2271 15.0455ZM17.5699 11.4616C16.8248 10.7668 15.6519 10.8768 14.9801 11.6569C14.2594 12.498 14.7845 13.68 15.8961 13.7897C16.5679 13.8506 17.3987 13.656 17.8141 13.0709C18.156 12.5834 17.9974 11.8638 17.5699 11.4616Z" fill="#D28B53" fill-opacity="0.5"/>
</svg>
