<svg width="281" height="212" viewBox="0 0 281 212" fill="none" xmlns="http://www.w3.org/2000/svg">
<g clip-path="url(#clip0_152_46)">
<path d="M28.3066 142.381C28.6613 142.633 29.0472 142.853 29.4652 143.034C79.4946 164.825 138.867 148.425 170.634 104.038C172.675 101.187 172.014 97.2219 169.152 95.1843C166.291 93.1467 162.317 93.8107 160.276 96.6623C131.982 136.195 79.11 150.805 34.5548 131.4C31.3322 129.998 27.5814 131.464 26.1779 134.676C24.9517 137.476 25.9113 140.675 28.3066 142.381Z" fill="#B2BE83"/>
<path d="M167 95.7118C167.094 95.874 167.215 96.0203 167.37 96.1476C168.048 96.6987 169.05 96.6021 169.607 95.9263C169.639 95.886 172.879 91.9879 177.551 89.2999C178.312 88.8622 178.573 87.8912 178.134 87.1324C177.695 86.3737 176.722 86.1131 175.961 86.5508C170.769 89.5385 167.291 93.738 167.148 93.9157C166.716 94.4391 166.679 95.1565 167 95.7118Z" fill="#B2BE83"/>
<path d="M166.665 99.6716C166.999 100.249 167.68 100.575 168.368 100.432L175.853 98.8732C176.712 98.6941 177.264 97.8522 177.085 96.9956C176.904 96.1362 176.061 95.5877 175.202 95.7668L167.722 97.3266C166.859 97.5045 166.307 98.3464 166.486 99.2031C166.522 99.373 166.583 99.5286 166.665 99.6716Z" fill="#B2BE83"/>
<path d="M167.635 103.994C167.97 104.575 168.651 104.901 169.343 104.752L174.95 103.566C175.81 103.383 176.36 102.543 176.176 101.685C175.994 100.83 175.151 100.281 174.291 100.465L168.685 101.65C167.825 101.833 167.275 102.674 167.459 103.531C167.493 103.699 167.553 103.854 167.635 103.994Z" fill="#B2BE83"/>
<path d="M162.018 98.356C162.457 99.1147 163.43 99.3753 164.191 98.9376C164.951 98.4999 165.213 97.5289 164.774 96.7701C164.586 96.4387 162.985 93.3916 165.55 91.1645C166.214 90.5847 166.283 89.5853 165.706 88.9244C165.129 88.2634 164.123 88.1939 163.46 88.7694C159.781 91.9671 160.908 96.4371 162.018 98.356Z" fill="#B2BE83"/>
<path d="M-4.13937 89.2195L-4.8239 175.348C10.0828 173.011 35.5757 167.345 44.4583 130.757C49.1599 111.387 39.0597 91.5606 19.8793 85.9749C18.505 85.5747 17.1344 85.2747 15.7765 85.0446C7.5986 83.6549 2.77861 85.5145 -4.13937 89.2195Z" fill="#B2BE83"/>
<path d="M23.5939 131.803C30.6369 133.854 36.7858 132.471 37.1709 132.378C38.0252 132.177 38.5528 131.326 38.3524 130.47C38.151 129.618 37.2953 129.088 36.441 129.289C36.3163 129.319 23.7622 132.1 14.9303 123.025C14.3185 122.397 13.3091 122.381 12.6797 122.991C12.0503 123.601 12.0349 124.605 12.6458 125.236C16.0889 128.771 19.9625 130.745 23.5939 131.803Z" fill="#4E5E1B" fill-opacity="0.8"/>
<path d="M34.7594 105.492C38.9253 106.705 46.7339 108.28 53.3795 105.653C59.5966 103.199 63.1482 97.7912 63.9374 89.58C64.0671 88.2308 62.78 86.8983 61.0521 86.5958C59.3267 86.2965 57.8242 87.1494 57.6968 88.5018C57.0642 95.0796 54.4825 99.3142 50.0289 101.088C43.2912 103.77 34.0526 100.127 33.9613 100.087C32.3332 99.4329 30.5417 99.8917 29.9501 101.109C29.3585 102.326 30.182 103.839 31.7996 104.495C31.942 104.552 33.043 104.992 34.7594 105.492Z" fill="#B2BE83"/>
<path d="M54.1913 75.2102C56.0468 68.8705 62.7037 65.2315 69.0594 67.0823C75.4153 68.9332 79.0635 75.5735 77.2079 81.9133C75.3522 88.253 68.6954 91.8922 62.3397 90.0413C55.984 88.1903 52.3357 81.55 54.1913 75.2102ZM68.2655 69.8C63.4144 68.3873 58.3333 71.1644 56.9169 76.0032C55.5006 80.8422 58.2854 85.9107 63.1366 87.3235C67.9877 88.7361 73.0689 85.9583 74.4852 81.1194C75.9013 76.2806 73.1164 71.2128 68.2655 69.8Z" fill="#B2BE83"/>
<path d="M68.8992 72.1904C71.8373 73.046 73.5306 76.1279 72.6728 79.0586C71.815 81.9894 68.7254 83.6784 65.7872 82.8227C62.8491 81.9671 61.1559 78.8852 62.0136 75.9545C62.8714 73.0237 65.961 71.3347 68.8992 72.1904Z" fill="#4E5E1B" fill-opacity="0.8"/>
<path d="M9.10557 91.4388C9.21857 91.4717 9.33615 91.5004 9.45828 91.5248C10.0483 91.6378 15.3811 92.5108 21.2863 88.8687C29.4939 83.8038 34.5033 72.8264 36.1797 56.2386C36.3291 54.7541 35.0461 53.3395 33.3174 53.0739C31.5849 52.8101 30.0631 53.7969 29.9106 55.2804C28.0382 73.8065 22.1692 81.2202 17.5748 84.1778C13.6624 86.6961 10.3509 86.2102 10.2112 86.1891C8.50311 85.9212 6.95368 86.8664 6.76603 88.3229C6.59178 89.6769 7.5968 90.9995 9.10557 91.4388Z" fill="#B2BE83"/>
<path d="M26.5526 41.4796C28.4082 35.1398 35.065 31.5008 41.4208 33.3517C47.7762 35.2027 51.4245 41.8422 49.5692 48.1818C47.7136 54.5215 41.0568 58.1605 34.701 56.3097C28.3453 54.4588 24.6972 47.8194 26.5526 41.4796ZM40.6259 36.0685C35.7747 34.6557 30.6935 37.4336 29.2772 42.2726C27.8609 47.1116 30.6458 52.1801 35.4969 53.5929C40.3479 55.0053 45.4282 52.2275 46.8446 47.3888C48.2609 42.5499 45.4769 37.4813 40.6259 36.0685Z" fill="#B2BE83"/>
<path d="M41.2667 38.4593C44.2049 39.3149 45.8981 42.3968 45.0403 45.3275C44.1826 48.2583 41.0929 49.9473 38.1548 49.0916C35.2167 48.236 33.5234 45.1542 34.3812 42.2234C35.239 39.2927 38.3256 37.6028 41.2667 38.4593Z" fill="#4E5E1B" fill-opacity="0.8"/>
</g>
<path d="M133.754 25.4512C132.472 25.7603 129.923 26.0857 129.073 25.1095C127.44 23.2222 126.724 17.6092 127.307 15.2175C127.907 12.8096 130.989 12.0612 133.488 12.5168C140.685 13.8671 140.869 23.7266 133.754 25.4512ZM131.988 16.2913C129.923 16.2913 131.089 22.181 132.605 21.4651C135.071 20.2937 134.637 16.2751 131.988 16.2913Z" fill="#D28B53"/>
<path d="M150.716 17.9508C150.766 22.9131 146.284 27.0456 141.636 24.3774C136.121 21.2048 141.719 12.0287 147.367 13.7858C149.533 14.4529 150.699 15.9009 150.716 17.9508ZM144.901 17.479C143.468 18.504 143.318 20.7004 145.068 20.4238C147.767 20.0008 147.1 15.9009 144.901 17.479Z" fill="#D28B53"/>
<path d="M156.649 22.8155C156.516 26.1508 151.967 25.9393 151.451 22.6365C151.084 20.3588 151.218 18.0322 151.817 15.8358C152.55 13.2001 155.733 13.1676 156.366 15.8358C158.748 13.5255 163.53 13.1513 163.929 16.8608C164.079 18.1298 163.663 19.6754 164.529 20.6191C167.728 24.1333 161.197 27.0782 159.681 23.3198C159.315 22.425 159.298 18.6342 158.581 17.9671C157.715 17.1374 156.499 17.8858 156.499 19.6592C156.499 20.7004 156.682 21.758 156.649 22.8155Z" fill="#D28B53"/>
<path d="M169.126 18.325C168.676 18.6667 167.943 18.5528 167.86 17.9997C167.826 17.7068 167.91 17.4139 167.976 17.1211C167.76 17.1211 167.527 17.1048 167.293 17.056C165.677 16.6493 165.427 14.5993 166.627 13.4767C167.593 12.5656 169.759 12.7283 170.176 13.9322C170.642 15.2175 170.242 16.9747 169.409 18.0322C169.326 18.1298 169.243 18.2437 169.126 18.325Z" fill="#D28B53"/>
<path d="M178.565 24.1496C178.448 26.3623 175.533 27.127 173.967 25.5325C172.85 24.3774 172.484 21.156 172.451 18.7481C172.167 18.8619 171.734 18.9108 171.534 18.8782C171.434 18.8457 171.351 18.7969 171.268 18.7318C170.951 18.504 170.785 18.0485 170.751 17.658C170.735 17.3326 170.801 16.9747 171.034 16.7469C171.301 16.454 171.751 16.3727 172.151 16.3727C172.301 16.3727 172.434 16.4052 172.567 16.4378C172.817 14.5505 173.667 12.5818 175.549 12.9072C176.866 13.1187 177.449 13.7858 177.515 15.1362C177.532 15.4453 177.515 15.7544 177.499 16.0636C177.799 16.0473 178.098 16.0636 178.382 16.1449C178.598 16.21 178.748 16.3401 178.848 16.5354C179.065 16.9747 178.998 17.7881 178.648 18.1298C178.482 18.2762 178.248 18.3576 178.032 18.3739C177.782 18.4064 177.499 18.3901 177.232 18.325C177.099 19.5615 177.032 20.798 177.532 21.9044C177.865 22.6528 178.598 23.3361 178.565 24.1496Z" fill="#D28B53"/>
<path d="M194.249 24.1496C194.133 26.3623 191.217 27.127 189.651 25.5325C188.535 24.3774 188.168 21.156 188.135 18.7481C187.852 18.8619 187.418 18.9108 187.219 18.8782C187.119 18.8457 187.035 18.7969 186.952 18.7318C186.635 18.504 186.469 18.0485 186.435 17.658C186.419 17.3326 186.485 16.9747 186.719 16.7469C186.985 16.454 187.435 16.3727 187.835 16.3727C187.985 16.3727 188.118 16.4052 188.251 16.4378C188.501 14.5505 189.351 12.5818 191.234 12.9072C192.55 13.1187 193.133 13.7858 193.2 15.1362C193.216 15.4453 193.2 15.7544 193.183 16.0636C193.483 16.0473 193.783 16.0636 194.066 16.1449C194.283 16.21 194.433 16.3401 194.532 16.5354C194.749 16.9747 194.682 17.7881 194.333 18.1298C194.166 18.2762 193.933 18.3576 193.716 18.3739C193.466 18.4064 193.183 18.3901 192.916 18.325C192.783 19.5615 192.716 20.798 193.216 21.9044C193.549 22.6528 194.283 23.3361 194.249 24.1496Z" fill="#D28B53"/>
<path d="M206.278 17.9508C206.328 22.9131 201.846 27.0456 197.198 24.3774C191.683 21.2048 197.281 12.0287 202.929 13.7858C205.095 14.4529 206.261 15.9009 206.278 17.9508ZM200.463 17.479C199.03 18.504 198.88 20.7004 200.63 20.4238C203.329 20.0008 202.662 15.9009 200.463 17.479Z" fill="#D28B53"/>
<path d="M218.192 22.181C217.859 24.9794 214.843 25.9718 213.56 23.4337C211.911 24.898 209.279 25.0444 207.779 23.4337C205.93 21.4814 206.646 17.8207 208.212 15.6568C209.412 13.0049 213.894 13.7533 212.594 16.9096C212.244 17.7393 211.245 19.0409 211.778 19.7568C212.478 20.7004 213.944 19.7893 214.077 18.6179C214.227 17.3977 213.71 16.0148 214.31 14.9247C215.06 13.558 217.326 13.737 217.875 15.2175C218.325 16.389 218.342 20.9282 218.192 22.181Z" fill="#D28B53"/>
<path d="M229.078 23.7429C227.945 25.4349 224.997 25.6627 222.614 24.9306C219.349 23.9218 217.982 20.31 219.449 17.2838C221.331 13.4441 227.979 11.3291 229.845 15.4128C230.528 16.9096 229.412 18.0485 227.496 18.0485C226.313 18.0485 226.396 16.877 225.346 16.877C223.93 16.877 222.931 18.6016 223.447 19.529C223.88 20.2937 225.28 19.1385 226.113 18.8782C228.795 18.0485 231.128 20.6516 229.078 23.7429Z" fill="#D28B53"/>
<path d="M242.894 24.4587C241.645 26.0532 238.213 25.3698 238.663 23.027C239.262 19.8381 238.163 19.1873 237.213 20.4238C236.114 21.8718 236.697 24.9143 233.981 24.9143C231.932 24.9143 231.165 22.3437 230.915 20.6353C230.566 18.3088 230.432 15.7707 231.315 13.558C232.065 11.687 235.597 11.4267 236.33 13.1838C236.647 13.9485 236.313 15.9659 235.447 17.9508C235.43 17.9671 237.496 16.6005 238.096 16.389C241.478 15.1687 243.144 18.3088 243.427 21.823C243.494 22.7179 243.461 23.7429 242.894 24.4587Z" fill="#D28B53"/>
<path d="M118.694 73.8128C120.254 81.381 109.97 85.4828 104.251 80.2255C101.882 78.0302 100.207 68.4977 99.7447 65.2624C98.647 57.3476 98.1848 48.1039 102.576 41.4023C109.162 31.5232 127.649 31.2344 134.813 40.8246C144.576 53.8234 131.866 72.1951 116.21 68.0355C117.25 69.8264 118.232 71.7907 118.694 73.8128ZM113.552 51.2237C112.801 56.6543 118.405 57.2898 121.698 52.9568C124.125 49.7216 121.178 45.042 117.365 46.4863C115.343 47.2374 113.899 49.0861 113.552 51.2237Z" fill="#D28B53"/>
<path d="M162.024 68.9983C163.583 76.5665 153.3 80.6684 147.58 75.4111C145.212 73.2157 143.536 63.6832 143.074 60.448C141.976 52.5331 141.514 43.2895 145.905 36.5879C152.491 26.7088 170.978 26.4199 178.142 36.0102C184.497 44.4449 181.32 55.1907 174.04 60.5057C174.618 60.7946 175.253 61.0835 175.889 61.4301C176.929 62.0078 177.969 62.6433 178.835 63.4521C179.471 64.0299 179.875 64.7809 180.049 65.5897C180.337 66.8029 180.28 68.1317 179.875 69.2872C179.066 71.9447 175.542 74.66 172.827 74.66C170.516 74.66 168.321 73.0424 166.761 71.367C164.797 69.2872 162.832 67.2074 160.695 65.3586C161.272 66.5141 161.735 67.7273 162.024 68.9983ZM156.882 46.4092C156.131 51.8398 161.735 52.4753 165.028 48.1424C167.454 44.9071 164.508 40.2275 160.695 41.6719C158.673 42.4229 157.228 44.2716 156.882 46.4092Z" fill="#D28B53"/>
<path d="M220.778 74.7953C213.325 82.5946 199.113 82.8834 191.083 74.7953C182.59 66.2449 184.324 52.3217 189.754 44.0603C197.091 32.9679 214.134 30.5415 223.147 39.3229C232.91 48.8554 230.253 64.9162 220.778 74.7953ZM204.024 64.5695C210.552 65.7828 213.903 58.9656 212.748 52.3795C211.881 47.6422 206.393 47.0067 203.331 50.7041C199.576 55.1526 198.305 63.4719 204.024 64.5695Z" fill="#D28B53"/>
<path d="M256.848 75.9893C252.399 77.087 243.56 78.2424 240.614 74.7761C234.952 68.0745 232.468 48.1429 234.49 39.6504C236.569 31.1 247.257 28.4425 255.923 30.0601C280.881 34.8552 281.517 69.8654 256.848 75.9893ZM250.724 43.4633C243.56 43.4633 247.604 64.377 252.861 61.835C261.412 57.6754 259.91 43.4056 250.724 43.4633Z" fill="#D28B53"/>
<defs>
<clipPath id="clip0_152_46">
<rect width="180" height="155" fill="white" transform="translate(0 30)"/>
</clipPath>
</defs>
</svg>
